HIERARCHY
ROOT joint_Root
{
	OFFSET 0.0 0.0 0.0
	CHANNELS 6 Xposition Yposition Zposition Zrotation Xrotation Yrotation 
	JOINT Hips
	{
		OFFSET 4.5925 91.4895 -427.239
		CHANNELS 6 Xposition Yposition Zposition Zrotation Xrotation Yrotation 
		JOINT Spine
		{
			OFFSET 15.7357 0.0 0.0
			CHANNELS 6 Xposition Yposition Zposition Zrotation Xrotation Yrotation 
			JOINT Chest
			{
				OFFSET 8.98455 -0.406207 0.0
				CHANNELS 6 Xposition Yposition Zposition Zrotation Xrotation Yrotation 
				JOINT Neck
				{
					OFFSET 16.3773 0.0 0.0
					CHANNELS 6 Xposition Yposition Zposition Zrotation Xrotation Yrotation 
					JOINT Head
					{
						OFFSET 6.45672 0.0 0.0
						CHANNELS 6 Xposition Yposition Zposition Zrotation Xrotation Yrotation 
						End Site
						{
							OFFSET 0.0 0.0 0.0
						}
					}
				}
				JOINT Shoulder_L
				{
					OFFSET 12.9942 -0.242716 4.98039
					CHANNELS 6 Xposition Yposition Zposition Zrotation Xrotation Yrotation 
					JOINT UpperArm_L
					{
						OFFSET 5.34809 0.0 0.0
						CHANNELS 6 Xposition Yposition Zposition Zrotation Xrotation Yrotation 
						JOINT LowerArm_L
						{
							OFFSET 24.3286 1.87007e-05 0.0
							CHANNELS 6 Xposition Yposition Zposition Zrotation Xrotation Yrotation 
							JOINT Hand_L
							{
								OFFSET 22.2916 0.0 0.0
								CHANNELS 6 Xposition Yposition Zposition Zrotation Xrotation Yrotation 
								End Site
								{
									OFFSET 0.0 0.0 0.0
								}
							}
						}
					}
				}
				JOINT Shoulder_R
				{
					OFFSET 12.9945 -0.242716 -4.98039
					CHANNELS 6 Xposition Yposition Zposition Zrotation Xrotation Yrotation 
					JOINT UpperArm_R
					{
						OFFSET -5.34813 0.0 0.0
						CHANNELS 6 Xposition Yposition Zposition Zrotation Xrotation Yrotation 
						JOINT LowerArm_R
						{
							OFFSET -24.3289 0.000322201 0.0
							CHANNELS 6 Xposition Yposition Zposition Zrotation Xrotation Yrotation 
							JOINT Hand_R
							{
								OFFSET -22.2915 -0.000108084 0.0
								CHANNELS 6 Xposition Yposition Zposition Zrotation Xrotation Yrotation 
								End Site
								{
									OFFSET 0.0 0.0 0.0
								}
							}
						}
					}
				}
			}
		}
		JOINT UpperLeg_L
		{
			OFFSET -2.19248 -6.46944 0.0
			CHANNELS 6 Xposition Yposition Zposition Zrotation Xrotation Yrotation 
			JOINT LowerLeg_L
			{
				OFFSET 39.0811 0.0 -1.23785e-05
				CHANNELS 6 Xposition Yposition Zposition Zrotation Xrotation Yrotation 
				JOINT Foot_L
				{
					OFFSET 40.9854 0.0 -1.26872e-05
					CHANNELS 6 Xposition Yposition Zposition Zrotation Xrotation Yrotation 
					JOINT Toes_L
					{
						OFFSET 11.7543 0.0 0.0
						CHANNELS 6 Xposition Yposition Zposition Zrotation Xrotation Yrotation 
						End Site
						{
							OFFSET 0.0 0.0 0.0
						}
					}
				}
			}
		}
		JOINT UpperLeg_R
		{
			OFFSET -2.19251 6.46944 0.0
			CHANNELS 6 Xposition Yposition Zposition Zrotation Xrotation Yrotation 
			JOINT LowerLeg_R
			{
				OFFSET -39.0811 -0.00228153 -0.0401928
				CHANNELS 6 Xposition Yposition Zposition Zrotation Xrotation Yrotation 
				JOINT Foot_R
				{
					OFFSET -40.9854 0.0 0.0
					CHANNELS 6 Xposition Yposition Zposition Zrotation Xrotation Yrotation 
					JOINT Toes_R
					{
						OFFSET -11.7543 0.0 0.0
						CHANNELS 6 Xposition Yposition Zposition Zrotation Xrotation Yrotation 
						End Site
						{
							OFFSET 0.0 0.0 0.0
						}
					}
				}
			}
		}
	}
}
MOTION
Frames:	6
Frame Time:	0.0333333
0.000000 0.000000 0.000000 0.000000 0.000000 -0.000000 -1.006850 90.734600 0.345202 90.036300 -2.640190 11.852500 15.735700 0.000005 -0.000001 87.725100 80.960900 -88.114900 8.984550 -0.406207 -0.000000 10.296200 -0.721407 -0.714070 16.377300 -0.000001 -0.000001 6.065650 -6.445840 3.349290 6.456720 -0.000001 -0.000000 2.420750 -7.533670 6.516640 12.994200 -0.242716 4.980390 -91.321000 5.151140 -75.595300 5.348090 -0.000007 -0.000001 -58.664700 38.992100 -21.604600 24.328600 0.000019 0.000005 9.077180 22.453100 -22.700100 22.291600 -0.000001 0.000005 7.101160 5.280420 0.614779 12.994500 -0.242716 -4.980390 88.604000 11.253100 -82.881600 -5.348130 -0.000001 -0.000004 -60.514500 34.194400 -14.237100 -24.328900 0.000322 -0.000009 1.732720 4.294370 -22.010300 -22.291500 -0.000108 -0.000004 12.052400 5.415800 -3.457920 -2.192480 -6.469440 -0.000000 -174.015000 -13.054000 2.361060 39.081100 -0.000007 -0.000012 -0.190605 0.324491 30.430100 40.985400 -0.000006 -0.000013 0.014095 6.211390 -70.489400 11.754300 -0.000000 0.000003 -0.000209 -0.001919 -16.649800 -2.192510 6.469440 -0.000001 172.120000 22.773300 -175.914000 -39.081100 -0.002282 -0.040193 -0.213815 0.372442 30.240400 -40.985400 0.000008 0.000006 3.985730 14.661400 -71.722200 -11.754300 -0.000006 -0.000006 -0.002066 -0.029536 -17.774100
0.000000 0.000000 0.000000 0.000000 0.000000 -0.000000 -0.981568 90.722400 0.407909 90.091300 -2.560030 11.894300 15.735700 0.000005 -0.000001 87.749300 80.913900 -88.150900 8.984550 -0.406207 -0.000000 10.390300 -0.718019 -0.737361 16.377300 -0.000001 -0.000001 6.100500 -6.473830 3.282590 6.456720 -0.000001 -0.000000 2.563330 -7.476790 6.457620 12.994200 -0.242716 4.980390 -91.356400 5.291060 -75.599100 5.348090 -0.000007 -0.000001 -57.939800 37.839100 -21.990700 24.328600 0.000019 0.000005 9.576730 22.616000 -23.688900 22.291600 -0.000001 0.000005 6.778890 5.286640 0.443580 12.994500 -0.242716 -4.980390 88.563100 11.295700 -82.702200 -5.348130 -0.000001 -0.000004 -60.180800 33.422400 -14.304500 -24.328900 0.000322 -0.000009 1.796360 4.209550 -23.147800 -22.291500 -0.000108 -0.000004 11.878800 5.415220 -3.438810 -2.192480 -6.469440 -0.000000 -174.080000 -13.016400 2.437100 39.081100 -0.000007 -0.000012 -0.191175 0.325383 30.436200 40.985400 -0.000006 -0.000013 0.033932 6.221720 -70.538300 11.754300 -0.000000 0.000003 -0.000191 -0.001784 -16.645000 -2.192510 6.469440 -0.000001 172.002000 22.808100 -175.847000 -39.081100 -0.002282 -0.040193 -0.212056 0.368486 30.303900 -40.985400 0.000008 0.000006 3.966830 14.651400 -71.790700 -11.754300 -0.000006 -0.000006 -0.002162 -0.030732 -17.822800
0.000000 0.000000 0.000000 0.000000 0.000000 -0.000000 -0.973255 90.716200 0.430499 90.086700 -2.345980 11.980300 15.735700 0.000005 -0.000001 87.524100 80.866300 -87.925100 8.984550 -0.406207 -0.000000 10.482300 -0.793225 -0.728781 16.377300 -0.000001 -0.000001 6.232490 -6.507630 3.241640 6.456720 -0.000001 -0.000000 2.785430 -7.439780 6.385820 12.994200 -0.242716 4.980390 -91.378900 5.372290 -75.582300 5.348090 -0.000007 -0.000001 -56.748700 36.750300 -22.757500 24.328600 0.000019 0.000005 10.253300 22.785600 -25.035900 22.291600 -0.000001 0.000005 6.439930 5.286210 0.455897 12.994500 -0.242716 -4.980390 88.524000 11.304900 -82.511600 -5.348130 -0.000001 -0.000004 -59.642600 32.514300 -14.440100 -24.328900 0.000322 -0.000009 1.825890 3.969090 -24.740900 -22.291500 -0.000108 -0.000004 11.805400 5.412950 -3.363090 -2.192480 -6.469440 -0.000000 -174.083000 -12.882800 2.494390 39.081100 -0.000007 -0.000012 -0.191283 0.325143 30.468800 40.985400 -0.000006 -0.000013 0.066254 6.311480 -70.557900 11.754300 -0.000000 0.000003 -0.000207 -0.001908 -16.649500 -2.192510 6.469440 -0.000001 171.913000 22.952800 -175.683000 -39.081100 -0.002282 -0.040193 -0.213611 0.371231 30.298300 -40.985400 0.000008 0.000006 3.939830 14.588500 -71.821200 -11.754300 -0.000006 -0.000006 -0.002007 -0.028808 -17.744500
0.000000 0.000000 0.000000 0.000000 0.000000 -0.000000 -0.957590 90.704900 0.427942 90.129700 -2.162910 12.017800 15.735700 0.000005 -0.000001 87.387700 80.848800 -87.795400 8.984550 -0.406207 -0.000000 10.515200 -0.838196 -0.737845 16.377300 -0.000001 -0.000001 6.514120 -6.548100 3.172910 6.456720 -0.000001 -0.000000 3.031920 -7.442210 6.268410 12.994200 -0.242716 4.980390 -91.394000 5.429240 -75.576100 5.348090 -0.000007 -0.000001 -55.132200 35.650000 -23.951200 24.328600 0.000019 0.000005 10.904400 22.724700 -26.505400 22.291600 -0.000001 0.000005 6.199970 5.284290 0.508494 12.994500 -0.242716 -4.980390 88.495700 11.206800 -82.304900 -5.348130 -0.000001 -0.000004 -59.026900 31.222200 -14.721400 -24.328900 0.000322 -0.000009 2.033900 4.062110 -26.636900 -22.291500 -0.000108 -0.000004 11.956700 5.410150 -3.270190 -2.192480 -6.469440 -0.000000 -174.161000 -12.762000 2.472450 39.081100 -0.000007 -0.000012 -0.190260 0.322754 30.519300 40.985400 -0.000006 -0.000013 0.096852 6.355390 -70.568100 11.754300 -0.000000 0.000003 -0.000191 -0.001782 -16.644800 -2.192510 6.469440 -0.000001 171.820000 23.009500 -175.650000 -39.081100 -0.002282 -0.040193 -0.216241 0.374653 30.370100 -40.985400 0.000008 0.000006 3.897530 14.483000 -71.860800 -11.754300 -0.000006 -0.000006 -0.002151 -0.030585 -17.816800
0.000000 0.000000 0.000000 0.000000 0.000000 -0.000000 -0.955763 90.705300 0.421514 90.141700 -1.978510 12.065800 15.735700 0.000005 -0.000001 87.180100 80.850800 -87.589200 8.984550 -0.406207 -0.000000 10.508100 -0.903785 -0.734497 16.377300 -0.000001 -0.000001 6.905460 -6.584480 3.167040 6.456720 -0.000001 -0.000000 3.403790 -7.378250 6.027440 12.994200 -0.242716 4.980390 -91.388400 5.391790 -75.536500 5.348090 -0.000007 -0.000001 -53.178700 34.580900 -25.508900 24.328600 0.000019 0.000005 11.461500 22.390200 -28.025200 22.291600 -0.000001 0.000005 5.984540 5.289770 0.357224 12.994500 -0.242716 -4.980390 88.466500 11.095700 -82.080600 -5.348130 -0.000001 -0.000004 -58.052600 29.995800 -15.271400 -24.328900 0.000322 -0.000009 2.095060 3.814660 -28.820500 -22.291500 -0.000108 -0.000004 12.008900 5.410240 -3.273400 -2.192480 -6.469440 -0.000000 -174.190000 -12.640300 2.491790 39.081100 -0.000007 -0.000012 -0.190877 0.323806 30.518800 40.985400 -0.000006 -0.000013 0.116189 6.412890 -70.553600 11.754300 -0.000000 0.000003 -0.000194 -0.001802 -16.645600 -2.192510 6.469440 -0.000001 171.756000 23.135900 -175.571000 -39.081100 -0.002282 -0.040193 -0.215484 0.373383 30.368700 -40.985400 0.000008 0.000006 3.885860 14.440100 -71.863200 -11.754300 -0.000006 -0.000006 -0.001943 -0.028007 -17.711900
0.000000 0.000000 0.000000 0.000000 0.000000 -0.000000 -0.953885 90.695300 0.407283 90.156100 -1.853180 12.148800 15.735700 0.000005 -0.000001 87.005600 80.858300 -87.414900 8.984550 -0.406207 -0.000000 10.490100 -0.958264 -0.730168 16.377300 -0.000001 -0.000001 7.467350 -6.583190 3.099600 6.456720 -0.000001 -0.000000 3.802240 -7.313220 5.744410 12.994200 -0.242716 4.980390 -91.392700 5.400060 -75.515500 5.348090 -0.000007 -0.000001 -50.962500 33.280900 -27.112700 24.328600 0.000019 0.000005 12.246500 22.007400 -30.080900 22.291600 -0.000001 0.000005 5.762380 5.290870 0.326786 12.994500 -0.242716 -4.980390 88.443600 10.932400 -81.847000 -5.348130 -0.000001 -0.000004 -56.858100 28.646900 -16.101500 -24.328900 0.000322 -0.000009 2.149360 3.546710 -31.257600 -22.291500 -0.000108 -0.000004 12.041700 5.408530 -3.216780 -2.192480 -6.469440 -0.000000 -174.201000 -12.599400 2.516240 39.081100 -0.000007 -0.000012 -0.188654 0.319271 30.578600 40.985400 -0.000006 -0.000013 0.151934 6.493170 -70.563100 11.754300 -0.000000 0.000003 -0.000195 -0.001810 -16.645900 -2.192510 6.469440 -0.000001 171.683000 23.176800 -175.494000 -39.081100 -0.002282 -0.040193 -0.220477 0.381071 30.423200 -40.985400 0.000008 0.000006 3.868980 14.387400 -71.889000 -11.754300 -0.000006 -0.000006 -0.002062 -0.029492 -17.772300
